<svg width="204" height="20" viewBox="0 0 204 20" fill="none" xmlns="http://www.w3.org/2000/svg">
<g clip-path="url(#clip0_6_17)">
<rect width="204" height="20" fill="white"/>
<mask id="mask0_6_17" style="mask-type:luminance" maskUnits="userSpaceOnUse" x="0" y="0" width="238" height="20">
<path d="M238 0H0V20H238V0Z" fill="white"/>
</mask>
<g mask="url(#mask0_6_17)">
<path d="M131.609 0.458557L117.191 14.8765L121.455 19.1403L135.873 4.72241L131.609 0.458557Z" fill="#0047FF"/>
<path d="M9.69076 0.566071L0.371094 9.8857L4.63495 14.1496L13.9546 4.82993L9.69076 0.566071Z" fill="black"/>
<path d="M4.63495 5.64826L0.371094 9.9121L9.7049 19.2459L13.9688 14.9821L4.63495 5.64826Z" fill="black"/>
<path d="M24.9137 5.62489L15.6152 14.9233L19.8791 19.1872L29.1775 9.8887L24.9137 5.62489Z" fill="black"/>
<path d="M19.8869 0.562809L15.623 4.82666L24.9356 14.1393L29.1995 9.8754L19.8869 0.562809Z" fill="black"/>
<path d="M19.873 0.561588L5.45508 14.9795L9.71893 19.2433L24.1368 4.82544L19.873 0.561588Z" fill="#0047FF"/>
</g>
<path d="M35.04 17.57L36.73 13.254C40.396 15.646 45.44 16.374 45.44 13.852C45.466 11.772 34.78 12.682 35.04 5.948C35.248 0.409999 43.074 -1.228 49.288 3.088L47.286 6.624C43.62 3.868 39.486 4.128 39.434 6.234C39.382 8.86 49.86 7.664 49.86 13.592C49.86 19.442 43.698 21.548 35.04 17.57ZM59.5168 19.286C55.2528 19.286 52.1328 15.984 52.1328 11.824V1.06H56.3968V11.824C56.3968 13.514 57.5408 14.944 59.5168 14.944C61.4668 14.944 62.6368 13.514 62.6368 11.824V1.06H66.8748V11.824C66.8748 15.984 63.7808 19.286 59.5168 19.286ZM70.05 19V1.06H78.448C82.972 1.06 85.208 4.362 85.208 7.612C85.208 11.07 82.972 14.138 78.448 14.138H74.47V19H70.05ZM74.47 10.342H78.188C79.67 10.342 80.918 9.12 80.918 7.612C80.918 6 79.67 4.856 78.188 4.856H74.47V10.342ZM87.3542 19V1.06H100.354V4.778H91.7222V7.95H99.0802V11.72H91.7222V15.282H100.354V19H87.3542ZM102.856 19V1.06H110.994C115.518 1.06 117.754 4.362 117.754 7.612C117.754 10.108 116.532 12.422 114.192 13.462L118.066 19H112.996L109.59 14.112L107.224 14.138V19H102.856ZM107.224 4.856V10.342H110.708C112.216 10.342 113.464 9.12 113.464 7.612C113.464 6 112.216 4.856 110.708 4.856H107.224Z" fill="black"/>
<path d="M147.27 19.442C141.94 19.442 137.936 15.074 137.936 10.03C137.936 4.96 141.94 0.669999 147.27 0.669999C150.182 0.669999 152.418 1.866 154.082 3.634L151.118 6.598C150.286 5.662 149.038 4.83 147.27 4.83C144.254 4.83 142.096 7.326 142.096 10.03C142.096 12.864 144.384 15.256 147.27 15.256C148.908 15.256 150.26 14.58 151.118 13.514L154.082 16.478C152.418 18.324 150.078 19.442 147.27 19.442ZM156.025 19V1.06H160.393V14.84H169.181V19H156.025ZM177.866 19.286C173.602 19.286 170.482 15.984 170.482 11.824V1.06H174.746V11.824C174.746 13.514 175.89 14.944 177.866 14.944C179.816 14.944 180.986 13.514 180.986 11.824V1.06H185.224V11.824C185.224 15.984 182.13 19.286 177.866 19.286ZM188.399 19V1.06H196.355C200.047 1.06 202.491 2.984 202.491 5.558C202.491 7.638 201.451 9.094 200.047 9.536C202.491 10.056 203.479 12.006 203.479 14.086C203.479 17.076 201.217 19 196.901 19H188.399ZM192.767 7.742H195.887C196.979 7.742 198.045 7.404 198.045 6.338C198.045 5.22 196.771 4.908 195.575 4.908H192.767V7.742ZM192.767 15.152H196.329C197.889 15.152 198.955 14.606 198.955 13.384C198.955 12.24 198.123 11.616 196.407 11.616H192.767V15.152Z" fill="black"/>
</g>
<defs>
<clipPath id="clip0_6_17">
<rect width="204" height="20" fill="white"/>
</clipPath>
</defs>
</svg>
